<svg width="20" height="20" viewBox="0 0 20 20" fill="none" xmlns="http://www.w3.org/2000/svg">
<path fill-rule="evenodd" clip-rule="evenodd" d="M16.9087 5.83376L12.2753 2.40875C10.92 1.41933 9.08063 1.41933 7.72533 2.40875L3.10033 5.83376C2.20486 6.47887 1.67208 7.51346 1.66699 8.61709V14.8088C1.71701 16.8031 3.37253 18.3804 5.36699 18.3338H14.6337C16.6281 18.3804 18.2836 16.8031 18.3337 14.8088V8.60876C18.3265 7.50989 17.7976 6.47982 16.9087 5.83376ZM17.0837 14.8088C17.034 16.1129 15.9379 17.1307 14.6337 17.0838H5.36699C4.06447 17.126 2.97118 16.1108 2.91699 14.8088V8.61709C2.92144 7.90869 3.26547 7.24542 3.84199 6.83375L8.46699 3.41709C9.3804 2.75007 10.6202 2.75007 11.5337 3.41709L16.1587 6.84209C16.7347 7.24661 17.0794 7.90488 17.0837 8.60875V14.8088ZM6.25033 13.1254H13.7503C14.0955 13.1254 14.3753 13.4052 14.3753 13.7504C14.3753 14.0956 14.0955 14.3754 13.7503 14.3754H6.25033C5.90515 14.3754 5.62533 14.0956 5.62533 13.7504C5.62533 13.4052 5.90515 13.1254 6.25033 13.1254Z" fill="#38112F"/>
</svg>
