<svg width="18" height="18" viewBox="0 0 18 18" fill="none" xmlns="http://www.w3.org/2000/svg">
<path id="Vector" fill-rule="evenodd" clip-rule="evenodd" d="M8.95196 1.77103e-07H9.04804C10.9806 -1.06016e-05 12.4952 -1.91372e-05 13.6769 0.158858C14.8864 0.321477 15.8409 0.660832 16.59 1.40997C17.3392 2.15912 17.6785 3.11356 17.8411 4.3231C18 5.50481 18 7.01936 18 8.95197V9.04803C18 10.9806 18 12.4952 17.8411 13.6769C17.6785 14.8864 17.3392 15.8409 16.59 16.59C15.8409 17.3392 14.8864 17.6785 13.6769 17.8411C12.4952 18 10.9806 18 9.04803 18H8.95197C7.01936 18 5.50481 18 4.3231 17.8411C3.11356 17.6785 2.15912 17.3392 1.40997 16.59C0.660832 15.8409 0.321477 14.8864 0.158858 13.6769C-1.91372e-05 12.4952 -1.06016e-05 10.9806 1.77103e-07 9.04804V8.95196C-1.06016e-05 7.01935 -1.91372e-05 5.50481 0.158858 4.3231C0.321477 3.11356 0.660832 2.15912 1.40997 1.40997C2.15912 0.660832 3.11356 0.321477 4.3231 0.158858C5.50481 -1.91372e-05 7.01935 -1.06016e-05 8.95196 1.77103e-07ZM4.49044 1.40347C3.42015 1.54737 2.77489 1.82105 2.29797 2.29797C1.82105 2.77489 1.54737 3.42015 1.40347 4.49044C1.25715 5.57879 1.25581 7.00893 1.25581 9C1.25581 10.9911 1.25715 12.4212 1.40347 13.5096C1.54737 14.5799 1.82105 15.2251 2.29797 15.702C2.77489 16.179 3.42015 16.4526 4.49044 16.5965C5.57879 16.7429 7.00893 16.7442 9 16.7442C10.9911 16.7442 12.4212 16.7429 13.5096 16.5965C14.5799 16.4526 15.2251 16.179 15.702 15.702C16.179 15.2251 16.4526 14.5799 16.5965 13.5096C16.7429 12.4212 16.7442 10.9911 16.7442 9C16.7442 7.00893 16.7429 5.57879 16.5965 4.49044C16.4526 3.42015 16.179 2.77489 15.702 2.29797C15.2251 1.82105 14.5799 1.54737 13.5096 1.40347C12.4212 1.25715 10.9911 1.25581 9 1.25581C7.00893 1.25581 5.57879 1.25715 4.49044 1.40347ZM9 6.27907C7.49727 6.27907 6.27907 7.49727 6.27907 9C6.27907 10.5027 7.49727 11.7209 9 11.7209C10.5027 11.7209 11.7209 10.5027 11.7209 9C11.7209 7.49727 10.5027 6.27907 9 6.27907ZM5.02326 9C5.02326 6.8037 6.8037 5.02326 9 5.02326C11.1963 5.02326 12.9767 6.8037 12.9767 9C12.9767 11.1963 11.1963 12.9767 9 12.9767C6.8037 12.9767 5.02326 11.1963 5.02326 9Z" fill="white"/>
</svg>
