<svg width="20" height="20" viewBox="0 0 20 20" fill="none" xmlns="http://www.w3.org/2000/svg">
<path fill-rule="evenodd" clip-rule="evenodd" d="M5.00033 3.33331H15.0003C16.8413 3.33331 18.3337 4.8257 18.3337 6.66665V14.1666C18.3337 16.0076 16.8413 17.5 15.0003 17.5H5.00033C3.15938 17.5 1.66699 16.0076 1.66699 14.1666V6.66665C1.66699 4.8257 3.15938 3.33331 5.00033 3.33331ZM11.167 11.2916L16.4503 7.37498C16.6861 7.20164 16.7382 6.87067 16.567 6.63331C16.4854 6.51999 16.3614 6.44452 16.2232 6.42411C16.0851 6.40371 15.9445 6.44009 15.8337 6.52498L10.492 10.4166C10.3583 10.5567 10.1731 10.636 9.97949 10.636C9.78586 10.636 9.60066 10.5567 9.46699 10.4166L4.16699 6.52498C4.05664 6.44276 3.91805 6.40797 3.78195 6.4283C3.64585 6.44864 3.52349 6.52243 3.44199 6.63331C3.26901 6.86851 3.3173 7.19908 3.55033 7.37498L8.80033 11.25C9.12701 11.5599 9.55841 11.7354 10.0087 11.7416C10.4374 11.7416 10.8506 11.581 11.167 11.2916Z" fill="#F68989"/>
</svg>
