<svg width="20" height="20" viewBox="0 0 20 20" fill="none" xmlns="http://www.w3.org/2000/svg">
<g id="Component 1">
<path id="Union" fill-rule="evenodd" clip-rule="evenodd" d="M7.375 2.5C8.8595 2.5 10.189 3.16354 11.0832 4.2102C7.81596 4.48518 5.25 7.22418 5.25 10.5625C5.25 10.9936 5.2928 11.4148 5.37438 11.8219C3.6797 11.0583 2.5 9.35441 2.5 7.375C2.5 4.68261 4.68261 2.5 7.375 2.5ZM6.02213 13.6062C3.15116 12.9858 1 10.4316 1 7.375C1 3.85418 3.85418 1 7.375 1C9.79355 1 11.8975 2.34681 12.9779 4.33134C15.8488 4.95174 18 7.5059 18 10.5625C18 14.0833 15.1458 16.9375 11.625 16.9375C9.20645 16.9375 7.10247 15.5907 6.02213 13.6062ZM8.52237 13.647C8.12567 13.248 7.80543 12.7729 7.58545 12.2455C10.1802 12.1353 12.25 9.99688 12.25 7.375C12.25 6.97498 12.2018 6.58621 12.1109 6.21419C12.6873 6.27788 13.23 6.45355 13.7167 6.71895C13.7387 6.93463 13.75 7.1535 13.75 7.375C13.75 10.5041 11.4956 13.1067 8.52237 13.647ZM16.5 10.5625C16.5 13.2549 14.3174 15.4375 11.625 15.4375C8.93261 15.4375 6.75 13.2549 6.75 10.5625C6.75 7.87011 8.93261 5.6875 11.625 5.6875C14.3174 5.6875 16.5 7.87011 16.5 10.5625Z" fill="#38112F"/>
</g>
</svg>
